<?xml version="1.0" standalone="no"?>
<!DOCTYPE svg PUBLIC "-//W3C//DTD SVG 20010904//EN"
 "http://www.w3.org/TR/2001/REC-SVG-20010904/DTD/svg10.dtd">
<svg version="1.0" xmlns="http://www.w3.org/2000/svg"
 width="1024.000000pt" height="1024.000000pt" viewBox="0 0 1024.000000 1024.000000"
 preserveAspectRatio="xMidYMid meet">
<metadata>
Created by potrace 1.14, written by Peter Selinger 2001-2017
</metadata>
<g transform="translate(0.000000,1024.000000) scale(0.100000,-0.100000)"
fill="#000000" stroke="none">
<path d="M1775 5124 c-385 -1115 -702 -2031 -703 -2035 -2 -5 197 -8 459 -7
l464 3 145 445 c80 245 148 453 152 463 7 16 52 17 740 17 l733 0 150 -462
150 -463 463 -3 462 -2 -79 227 c-43 126 -358 1041 -701 2036 l-623 1807 -556
0 -556 0 -700 -2026z m1346 869 c41 -125 153 -471 249 -768 l176 -540 -510 -3
c-280 -1 -511 0 -514 3 -3 3 107 349 243 770 198 608 253 765 266 765 13 0 33
-51 90 -227z"/>
<path d="M5480 5115 l0 -2035 430 0 430 0 0 840 0 840 875 0 875 0 0 -840 0
-840 430 0 430 0 0 2035 0 2035 -430 0 -430 0 0 -840 0 -840 -875 0 -875 0 0
840 0 840 -430 0 -430 0 0 -2035z"/>
</g>
</svg>
